<?xml version="1.0" encoding="utf-8"?>
<!-- Generator: Adobe Illustrator 19.0.0, SVG Export Plug-In . SVG Version: 6.00 Build 0)  -->
<svg version="1.0" id="Calque_1" xmlns="http://www.w3.org/2000/svg" xmlns:xlink="http://www.w3.org/1999/xlink" x="0px" y="0px"
	 viewBox="0 0 500 500" style="enable-background:new 0 0 500 500;" xml:space="preserve">
<style type="text/css">
	.st0{fill:none;stroke:#CCCCCC;stroke-width:20;stroke-miterlimit:10;}
	.st1{fill:#CCCCCC;stroke:#CCCCCC;stroke-width:2;stroke-miterlimit:10;}
	.st2{clip-path:url(#XMLID_417_);fill:#CCCCCC;}
	.st3{fill:#CCCCCC;}
	.st4{fill:none;stroke:#FFFFFF;stroke-width:6;stroke-miterlimit:10;}
	.st5{fill:none;stroke:#FFFFFF;stroke-width:4;stroke-miterlimit:10;}
	.st6{fill:none;stroke:#FFFFFF;stroke-miterlimit:10;}
</style>
<ellipse id="XMLID_2_" class="st0" cx="189.2" cy="193.1" rx="135.9" ry="131.9"/>
<line id="XMLID_1_" class="st0" x1="285.5" y1="286.2" x2="456.3" y2="453.4"/>
<ellipse id="XMLID_16_" class="st1" cx="918" cy="203.2" rx="102.4" ry="103.6"/>
<g id="XMLID_19_">
	<defs>
		<rect id="XMLID_18_" x="679.7" y="15" width="476.5" height="403"/>
	</defs>
	<clipPath id="XMLID_417_">
		<use xlink:href="#XMLID_18_"  style="overflow:visible;"/>
	</clipPath>
	<ellipse id="XMLID_17_" class="st2" cx="922.1" cy="412.8" rx="189.2" ry="119.8"/>
</g>
<path id="XMLID_59_" class="st3" d="M1868.8,267.3l-216.4,78.8c-6.2,2.3-13.1-1-15.4-7.2l-48.4-133c-2.3-6.2,1-13.1,7.2-15.4
	l216.4-78.8c6.2-2.3,13.1,1,15.4,7.2l48.4,133C1878.3,258.1,1875,265.1,1868.8,267.3z"/>
<line id="XMLID_3_" class="st4" x1="1747.5" y1="183.3" x2="1809.9" y2="160.6"/>
<line id="XMLID_5_" class="st4" x1="1755.3" y1="204.6" x2="1817.7" y2="181.9"/>
<line id="XMLID_6_" class="st4" x1="1763" y1="226" x2="1825.5" y2="203.2"/>
<line id="XMLID_7_" class="st4" x1="1770.2" y1="245.7" x2="1832.7" y2="223"/>
<rect id="XMLID_4_" x="1644.7" y="207.1" transform="matrix(0.9397 -0.342 0.342 0.9397 21.2453 585.4915)" class="st5" width="52.4" height="50.9"/>
<line id="XMLID_8_" class="st4" x1="1657.2" y1="290.3" x2="1718.1" y2="268.2"/>
<line id="XMLID_9_" class="st6" x1="1706.6" y1="158.6" x2="1759.3" y2="303.2"/>
<g id="XMLID_10_">
	<path id="XMLID_376_" class="st3" d="M1433.1,400.2c0,0,2.6-1.1,7.2-3.1c2.3-1,5.1-2.2,8.3-3.6c3.2-1.4,6.8-2.9,10.8-4.6
		c4-1.7,8.2-3.5,12.8-5.4c4.5-1.9,9.3-3.9,14.3-5.9c5-2,10.1-4.2,15.3-6.3c5.2-2.1,10.5-4.3,15.8-6.4c5.3-2.1,10.6-4.4,15.8-6.6
		c5.2-2.2,10.3-4.4,15.3-6.2c5-1.9,10-3.5,14.7-4.9c4.7-1.4,9.2-2.7,13.4-3.8c4.2-1.1,8-2,11.4-2.8c3.4-0.8,6.5-1.3,8.9-1.8
		c2.5-0.5,4.5-0.8,5.8-1c1.4-0.2,2.1-0.3,2.1-0.3l0.4,1.1c0,0-0.6,0.4-1.8,1.1c-1.2,0.7-2.9,1.8-5.1,3c-2.2,1.3-4.9,2.8-8,4.4
		c-3.1,1.6-6.7,3.4-10.6,5.2c-3.9,1.8-8.1,3.8-12.7,5.7c-4.5,2-9.3,3.9-14.4,5.7c-5.1,1.8-10.3,3.4-15.7,5.1
		c-5.4,1.6-10.9,3.3-16.3,5.1c-5.4,1.8-10.9,3.5-16.2,5.3c-5.3,1.8-10.6,3.4-15.8,5c-5.1,1.6-10.1,3.2-14.8,4.6
		c-4.7,1.5-9.1,2.8-13.2,4.1c-4.1,1.3-7.9,2.4-11.2,3.4c-3.3,1-6.3,1.9-8.6,2.6c-4.8,1.4-7.5,2.3-7.5,2.3L1433.1,400.2z"/>
</g>
<g id="XMLID_11_">
	<path id="XMLID_378_" class="st3" d="M1412.9,344.7c0,0,2.6-1.1,7.2-3.1c2.3-1,5.1-2.2,8.3-3.6c3.2-1.4,6.8-2.9,10.8-4.6
		c4-1.7,8.2-3.5,12.8-5.4c4.5-1.9,9.3-3.9,14.3-5.9c5-2,10.1-4.2,15.3-6.3c5.2-2.1,10.5-4.3,15.8-6.4c5.3-2.1,10.6-4.4,15.8-6.6
		c5.2-2.2,10.3-4.4,15.3-6.2c5-1.9,10-3.5,14.7-4.9c4.7-1.4,9.2-2.7,13.4-3.8c4.2-1.1,8-2,11.4-2.8c3.4-0.8,6.5-1.3,8.9-1.8
		c2.5-0.5,4.5-0.8,5.8-1c1.4-0.2,2.1-0.3,2.1-0.3l0.4,1.1c0,0-0.6,0.4-1.8,1.1c-1.2,0.7-2.9,1.8-5.1,3c-2.2,1.3-4.9,2.8-8,4.4
		c-3.1,1.6-6.7,3.4-10.6,5.2c-3.9,1.8-8.1,3.8-12.7,5.7c-4.5,2-9.3,3.9-14.4,5.7c-5.1,1.8-10.3,3.4-15.7,5.1
		c-5.4,1.6-10.9,3.3-16.3,5.1c-5.4,1.8-10.9,3.5-16.2,5.3c-5.3,1.8-10.6,3.4-15.8,5c-5.1,1.6-10.1,3.2-14.8,4.6
		c-4.7,1.5-9.1,2.8-13.2,4.1c-4.1,1.3-7.9,2.4-11.2,3.4c-3.3,1-6.3,1.9-8.6,2.6c-4.8,1.4-7.5,2.3-7.5,2.3L1412.9,344.7z"/>
</g>
<g id="XMLID_12_">
	<path id="XMLID_380_" class="st3" d="M1393.6,291.5c0,0,2.6-1.1,7.2-3.1c2.3-1,5.1-2.2,8.3-3.6c3.2-1.4,6.8-2.9,10.8-4.6
		c4-1.7,8.2-3.5,12.8-5.4c4.5-1.9,9.3-3.9,14.3-5.9c5-2,10.1-4.2,15.3-6.3c5.2-2.1,10.5-4.3,15.8-6.4c5.3-2.1,10.6-4.4,15.8-6.6
		c5.2-2.2,10.3-4.4,15.3-6.2c5-1.9,10-3.5,14.7-4.9c4.7-1.4,9.2-2.7,13.4-3.8c4.2-1.1,8-2,11.4-2.8c3.4-0.8,6.5-1.3,8.9-1.8
		c2.5-0.5,4.5-0.8,5.8-1c1.4-0.2,2.1-0.3,2.1-0.3l0.4,1.1c0,0-0.6,0.4-1.8,1.1c-1.2,0.7-2.9,1.8-5.1,3c-2.2,1.3-4.9,2.8-8,4.4
		c-3.1,1.6-6.7,3.4-10.6,5.2c-3.9,1.8-8.1,3.8-12.7,5.7c-4.5,2-9.3,3.9-14.4,5.7c-5.1,1.8-10.3,3.4-15.7,5.1
		c-5.4,1.6-10.9,3.3-16.3,5.1c-5.4,1.8-10.9,3.5-16.2,5.3c-5.3,1.8-10.6,3.4-15.8,5c-5.1,1.6-10.1,3.2-14.8,4.6
		c-4.7,1.5-9.1,2.8-13.2,4.1c-4.1,1.3-7.9,2.4-11.2,3.4c-3.3,1-6.3,1.9-8.6,2.6c-4.8,1.4-7.5,2.3-7.5,2.3L1393.6,291.5z"/>
</g>
<g id="XMLID_401_">
</g>
<g id="XMLID_402_">
</g>
<g id="XMLID_403_">
</g>
<g id="XMLID_404_">
</g>
<g id="XMLID_405_">
</g>
<g id="XMLID_406_">
</g>
<g id="XMLID_407_">
</g>
<g id="XMLID_408_">
</g>
<g id="XMLID_409_">
</g>
<g id="XMLID_410_">
</g>
<g id="XMLID_411_">
</g>
<g id="XMLID_412_">
</g>
<g id="XMLID_413_">
</g>
<g id="XMLID_414_">
</g>
<g id="XMLID_415_">
</g>
</svg>
