<?xml version="1.0" encoding="utf-8"?>
<!-- Generator: Adobe Illustrator 22.0.0, SVG Export Plug-In . SVG Version: 6.00 Build 0)  -->
<svg version="1.1" xmlns="http://www.w3.org/2000/svg" xmlns:xlink="http://www.w3.org/1999/xlink" x="0px" y="0px"
	 viewBox="0 0 600 600" style="enable-background:new 0 0 600 600;" xml:space="preserve">
<style type="text/css">
	.st0{fill:none;stroke:#000000;stroke-width:8;stroke-miterlimit:10;}
	.st1{fill:none;stroke:#000000;stroke-width:5;stroke-miterlimit:10;}
	.st2{fill:none;stroke:#000000;stroke-width:3;stroke-miterlimit:10;}
	.st3{fill:#FFFFFF;}
	.st4{fill:none;stroke:#000000;stroke-width:20;stroke-miterlimit:10;}
	.st5{fill:none;stroke:#E6E6E6;stroke-width:20;stroke-miterlimit:10;}
	.st6{fill:none;stroke:#FFFFFF;stroke-width:20;stroke-miterlimit:10;}
	.st7{fill:none;stroke:#E6E6E6;stroke-width:3;stroke-miterlimit:10;}
	.st8{fill:none;stroke:#E6E6E6;stroke-width:8;stroke-miterlimit:10;}
	.st9{fill:none;stroke:#FFFFFF;stroke-width:3;stroke-miterlimit:10;}
	.st10{fill:none;stroke:#FFFFFF;stroke-width:8;stroke-miterlimit:10;}
	.st11{fill:none;stroke:#E6E6E6;stroke-width:5;stroke-miterlimit:10;}
	.st12{fill:none;stroke:#FFFFFF;stroke-width:5;stroke-miterlimit:10;}
</style>
<g id="Layer_1">
</g>
<g id="Layer_4">
</g>
<g id="Layer_7">
	<g id="XMLID_14_">
		<g>
			<path class="st3" d="M562.3,273.4v57.8c0,6.6-7.8,16.1-14.3,16.1h-36.3c-2.2,0-4.2-2.7-5.9-3.7c-5.6,26.6-16.2,51.1-30.9,72.7
				c2.2,0.4,4.5,1.4,6.2,3.2l25.7,25.6c4.6,4.7,4.6,12.1,0,16.8l-40.9,40.9c-4.7,4.7-12.2,4.7-16.8,0l-25.6-25.7
				c-1.8-1.7-2.8-3.8-3.2-6c-22.3,15.2-48.4,26.2-75.8,31.9c1.2,1.9,1.6,4.2,1.6,6.8v36.4c0,6.5-4.3,8.8-10.8,8.8h-57.9
				c-6.5,0-17.8-2.3-17.8-8.8v-36.4c0-2,3.5-3.9,4.5-5.6c-29.7-5.2-56.2-16.5-80.1-32.8c-0.4,2.2-1.1,4.2-2.8,5.8l-25.6,25.7
				c-4.6,4.7-12,4.7-16.6,0L98,462c-4.7-4.7-4.6-12.2,0-16.8l25.7-25.6c1.7-1.7,3.8-2.8,6-3.2c-14.8-21.8-25.6-44.6-31.2-71.3
				c-0.8,0.2-1.5,2.4-2.2,2.4H59.9c-6.6,0-16.8-9.6-16.8-16.1v-57.8c0-6.6,10.2-12.6,16.8-12.6h36.3c0.3,0,0.7,0.3,1,0.4
				c5.4-29.4,17.2-56.6,33.4-80.2c-2.7-0.2-5-1.4-7.1-3.5L98,151.9c-4.7-4.7-4.7-12.2,0-16.9l41-40.9c4.7-4.6,12.2-4.6,16.8,0
				l25.7,25.7c2.1,2.1,3.2,4.6,3.4,7.2c23.7-16.4,48.2-27.9,77.6-33.2c-0.1-0.2-3.1-0.5-3.1-0.8V56.8c0-6.6,11.3-12.3,17.8-12.3
				h57.9c6.5,0,10.8,5.7,10.8,12.3v36.3c0,0.8,0.5,1.6,0.2,2.3c27,5.8,51.9,16.8,73.9,32.1c0.1-2.8,1.2-5.5,3.4-7.7l25.6-25.7
				c4.7-4.6,12.1-4.6,16.8,0l40.9,40.9c4.6,4.7,4.6,12.2,0,16.8l-25.7,25.7c-2.1,2.1-4.8,3.2-7.6,3.4c16.6,24,28.3,51.3,33.6,81.1
				c1.4-0.6,3-1.2,4.6-1.2H548C554.5,260.8,562.3,266.8,562.3,273.4z M403.6,301.1c0-54.5-44.2-98.7-98.7-98.7s-98.7,44.2-98.7,98.7
				s44.2,98.7,98.7,98.7S403.6,355.6,403.6,301.1z"/>
		</g>
		<g>
			<path class="st4" d="M562.3,273.4v57.8c0,6.6-7.8,16.1-14.3,16.1h-36.3c-2.2,0-4.2-2.7-5.9-3.7c-5.6,26.6-16.2,51.1-30.9,72.7
				c2.2,0.4,4.5,1.4,6.2,3.2l25.7,25.6c4.6,4.7,4.6,12.1,0,16.8l-40.9,40.9c-4.7,4.7-12.2,4.7-16.8,0l-25.6-25.7
				c-1.8-1.7-2.8-3.8-3.2-6c-22.3,15.2-48.4,26.2-75.8,31.9c1.2,1.9,1.6,4.2,1.6,6.8v36.4c0,6.5-4.3,8.8-10.8,8.8h-57.9
				c-6.5,0-17.8-2.3-17.8-8.8v-36.4c0-2,3.5-3.9,4.5-5.6c-29.7-5.2-56.2-16.5-80.1-32.8c-0.4,2.2-1.1,4.2-2.8,5.8l-25.6,25.7
				c-4.6,4.7-12,4.7-16.6,0L98,462c-4.7-4.7-4.6-12.2,0-16.8l25.7-25.6c1.7-1.7,3.8-2.8,6-3.2c-14.8-21.8-25.6-44.6-31.2-71.3
				c-0.8,0.2-1.5,2.4-2.2,2.4H59.9c-6.6,0-16.8-9.6-16.8-16.1v-57.8c0-6.6,10.2-12.6,16.8-12.6h36.3c0.3,0,0.7,0.3,1,0.4
				c5.4-29.4,17.2-56.6,33.4-80.2c-2.7-0.2-5-1.4-7.1-3.5L98,151.9c-4.7-4.7-4.7-12.2,0-16.9l41-40.9c4.7-4.6,12.2-4.6,16.8,0
				l25.7,25.7c2.1,2.1,3.2,4.6,3.4,7.2c23.7-16.4,48.2-27.9,77.6-33.2c-0.1-0.2-3.1-0.5-3.1-0.8V56.8c0-6.6,11.3-12.3,17.8-12.3
				h57.9c6.5,0,10.8,5.7,10.8,12.3v36.3c0,0.8,0.5,1.6,0.2,2.3c27,5.8,51.9,16.8,73.9,32.1c0.1-2.8,1.2-5.5,3.4-7.7l25.6-25.7
				c4.7-4.6,12.1-4.6,16.8,0l40.9,40.9c4.6,4.7,4.6,12.2,0,16.8l-25.7,25.7c-2.1,2.1-4.8,3.2-7.6,3.4c16.6,24,28.3,51.3,33.6,81.1
				c1.4-0.6,3-1.2,4.6-1.2H548C554.5,260.8,562.3,266.8,562.3,273.4z"/>
			<path class="st4" d="M403.6,301.1c0,54.5-44.2,98.7-98.7,98.7s-98.7-44.2-98.7-98.7s44.2-98.7,98.7-98.7S403.6,246.6,403.6,301.1
				z"/>
		</g>
	</g>
</g>
<g id="Layer_10">
</g>
<g id="Layer_13">
</g>
<g id="Layer_14">
</g>
<g id="Layer_15">
</g>
<g id="Layer_11">
</g>
<g id="Layer_12">
</g>
<g id="Layer_8">
</g>
<g id="Layer_9">
</g>
<g id="Layer_5">
</g>
<g id="Layer_6">
</g>
<g id="Layer_2">
</g>
<g id="Layer_3">
</g>
</svg>
