<?xml version="1.0" encoding="utf-8"?>
<!-- Generator: Adobe Illustrator 22.0.0, SVG Export Plug-In . SVG Version: 6.00 Build 0)  -->
<svg version="1.1" xmlns="http://www.w3.org/2000/svg" xmlns:xlink="http://www.w3.org/1999/xlink" x="0px" y="0px"
	 viewBox="0 0 600 600" style="enable-background:new 0 0 600 600;" xml:space="preserve">
<style type="text/css">
	.st0{fill:none;stroke:#000000;stroke-width:8;stroke-miterlimit:10;}
	.st1{fill:none;stroke:#000000;stroke-width:5;stroke-miterlimit:10;}
	.st2{fill:none;stroke:#000000;stroke-width:20;stroke-miterlimit:10;}
	.st3{fill:#FFFFFF;}
	.st4{fill:none;stroke:#E6E6E6;stroke-width:20;stroke-miterlimit:10;}
	.st5{fill:none;stroke:#FFFFFF;stroke-width:20;stroke-miterlimit:10;}
	.st6{fill:none;stroke:#E6E6E6;stroke-width:8;stroke-miterlimit:10;}
	.st7{fill:none;stroke:#E6E6E6;stroke-width:5;stroke-miterlimit:10;}
	.st8{fill:none;stroke:#FFFFFF;stroke-width:8;stroke-miterlimit:10;}
	.st9{fill:none;stroke:#FFFFFF;stroke-width:5;stroke-miterlimit:10;}
</style>
<g id="Layer_1">
</g>
<g id="Layer_4">
</g>
<g id="Layer_7">
</g>
<g id="Layer_10">
</g>
<g id="Layer_13">
</g>
<g id="Layer_14">
</g>
<g id="Layer_15">
</g>
<g id="Layer_11">
</g>
<g id="Layer_12">
</g>
<g id="Layer_8">
</g>
<g id="Layer_9">
</g>
<g id="Layer_5">
</g>
<g id="Layer_6">
	<g id="XMLID_30_">
		<g>
			<polyline class="st5" points="308.7,134.9 304.5,137.5 93.2,269 90.2,270.8 			"/>
			<polyline class="st5" points="93.2,261.8 93.2,269 93.2,546 			"/>
			<path class="st5" d="M227.2,545.5c0-83.4,34.4-151.1,77.3-152.8c0.6,0,1.1,0,1.7,0"/>
			<polyline class="st5" points="300.3,134.9 304.5,137.5 515.9,269 518.8,270.8 			"/>
			<polyline class="st5" points="515.9,262.3 515.9,269 515.9,546 			"/>
			<path class="st5" d="M381.8,545.5c0-83.4-34.4-151.1-77.3-152.8c-0.6,0-1.1,0-1.7,0"/>
			<polyline class="st5" points="307.9,65 304.5,67.1 81,209.9 			"/>
			<polyline class="st5" points="301.2,65 304.5,67.1 523,206.9 			"/>
		</g>
	</g>
</g>
<g id="Layer_2">
</g>
<g id="Layer_3">
</g>
</svg>
