<?xml version="1.0" encoding="utf-8"?>
<!-- Generator: Adobe Illustrator 19.0.0, SVG Export Plug-In . SVG Version: 6.00 Build 0)  -->
<svg version="1.0" id="Calque_1" xmlns="http://www.w3.org/2000/svg" xmlns:xlink="http://www.w3.org/1999/xlink" x="0px" y="0px"
	 viewBox="0 0 500 500" style="enable-background:new 0 0 500 500;" xml:space="preserve">
<style type="text/css">
	.st0{fill:none;stroke:#587EB3;stroke-width:20;stroke-miterlimit:10;}
	.st1{fill:#587EB3;}
	.st2{clip-path:url(#XMLID_143_);fill:#587EB3;}
	.st3{fill:none;stroke:#FFFFFF;stroke-width:6;stroke-miterlimit:10;}
	.st4{fill:none;stroke:#FFFFFF;stroke-width:4;stroke-miterlimit:10;}
	.st5{fill:none;stroke:#FFFFFF;stroke-miterlimit:10;}
	.st6{fill:none;stroke:#587EB3;stroke-width:12;stroke-miterlimit:10;}
	.st7{fill:#CCCCCC;stroke:#587EB3;stroke-width:12;stroke-miterlimit:10;}
</style>
<ellipse id="XMLID_2_" class="st0" cx="-1198.8" cy="206.1" rx="135.9" ry="131.9"/>
<g id="XMLID_1_">
	<g id="XMLID_56_">
		<path id="XMLID_61_" class="st1" d="M-1120.1,324.8c33.7,34.3,67.3,68.6,101,102.9c4.7,4.8,9.4,9.6,14.1,14.4
			c5.7,5.8,15.5,5.7,21.2,0c5.8-5.8,5.7-15.4,0-21.2c-33.7-34.3-67.3-68.6-101-102.9c-4.7-4.8-9.4-9.6-14.1-14.4
			c-5.7-5.8-15.5-5.7-21.2,0C-1125.9,309.4-1125.8,319-1120.1,324.8L-1120.1,324.8z"/>
	</g>
</g>
<ellipse id="XMLID_16_" class="st1" cx="-470" cy="216.2" rx="102.4" ry="103.6"/>
<g id="XMLID_19_">
	<defs>
		<rect id="XMLID_18_" x="-708.3" y="28" width="476.5" height="403"/>
	</defs>
	<clipPath id="XMLID_143_">
		<use xlink:href="#XMLID_18_"  style="overflow:visible;"/>
	</clipPath>
	<ellipse id="XMLID_17_" class="st2" cx="-465.9" cy="425.8" rx="189.2" ry="119.8"/>
</g>
<path id="XMLID_59_" class="st1" d="M492.3,267.1L220.5,366c-6.2,2.3-13.1-1-15.4-7.2l-61.5-169c-2.3-6.2,1-13.1,7.2-15.4
	l271.8-98.9c6.2-2.3,13.1,1,15.4,7.2l61.5,169C501.8,257.9,498.5,264.9,492.3,267.1z"/>
<line id="XMLID_3_" class="st3" x1="340.3" y1="164.6" x2="417.2" y2="136.6"/>
<line id="XMLID_5_" class="st3" x1="349.8" y1="190.9" x2="426.7" y2="162.9"/>
<line id="XMLID_6_" class="st3" x1="359.4" y1="217.1" x2="436.3" y2="189.1"/>
<line id="XMLID_7_" class="st3" x1="368.3" y1="241.5" x2="445.1" y2="213.5"/>
<rect id="XMLID_4_" x="213.6" y="193.9" transform="matrix(0.9397 -0.342 0.342 0.9397 -62.1866 97.6738)" class="st4" width="64.5" height="62.6"/>
<line id="XMLID_8_" class="st3" x1="229" y1="296.4" x2="304" y2="269.1"/>
<line id="XMLID_9_" class="st5" x1="289.9" y1="134.1" x2="354.7" y2="312.2"/>
<g id="XMLID_10_">
	<path id="XMLID_76_" class="st1" d="M5.7,390.8c0,0,2.4-1.1,6.7-2.9c2.1-0.9,4.7-2,7.7-3.3c3-1.3,6.3-2.7,10-4.3
		c3.7-1.6,7.6-3.2,11.8-5c4.2-1.8,8.6-3.6,13.2-5.5c4.6-1.9,9.3-3.9,14.1-5.9c4.8-2,9.7-4,14.6-6c4.9-2,9.8-4.1,14.6-6.2
		c4.8-2.1,9.5-4.1,14.2-5.8c4.7-1.7,9.2-3.2,13.6-4.5c4.4-1.3,8.5-2.5,12.4-3.4c3.9-1,7.4-1.8,10.6-2.5c3.2-0.7,6-1.2,8.3-1.6
		c2.3-0.4,4.2-0.7,5.4-0.8c1.3-0.2,1.9-0.2,1.9-0.2l0.4,1.1c0,0-0.6,0.4-1.6,1.1c-1.1,0.7-2.6,1.7-4.7,2.9c-2,1.2-4.5,2.6-7.4,4.1
		c-2.9,1.5-6.1,3.2-9.7,4.9c-3.6,1.7-7.5,3.5-11.7,5.3c-4.2,1.8-8.6,3.6-13.3,5.3c-4.7,1.6-9.6,3.2-14.6,4.6c-5,1.5-10.1,3-15.1,4.6
		c-5,1.6-10.1,3.2-15.1,4.8c-5,1.6-9.9,3.1-14.6,4.6c-4.7,1.5-9.3,2.9-13.7,4.2c-4.4,1.3-8.5,2.6-12.3,3.8
		c-3.8,1.1-7.3,2.2-10.4,3.1c-3.1,0.9-5.8,1.7-8,2.4c-4.5,1.3-7,2.1-7,2.1L5.7,390.8z"/>
</g>
<g id="XMLID_11_">
	<path id="XMLID_74_" class="st1" d="M-13,339.4c0,0,2.4-1.1,6.7-2.9c2.1-0.9,4.7-2,7.7-3.3c3-1.3,6.3-2.7,10-4.3
		c3.7-1.6,7.6-3.2,11.8-5c4.2-1.8,8.6-3.6,13.2-5.5c4.6-1.9,9.3-3.9,14.1-5.9c4.8-2,9.7-4,14.6-6c4.9-2,9.8-4.1,14.6-6.2
		c4.8-2.1,9.5-4.1,14.2-5.8c4.7-1.7,9.2-3.2,13.6-4.5c4.4-1.3,8.5-2.5,12.4-3.4c3.9-1,7.4-1.8,10.6-2.5c3.2-0.7,6-1.2,8.3-1.6
		c2.3-0.4,4.2-0.7,5.4-0.8c1.3-0.2,1.9-0.2,1.9-0.2l0.4,1.1c0,0-0.6,0.4-1.6,1.1c-1.1,0.7-2.6,1.7-4.7,2.9c-2,1.2-4.5,2.6-7.4,4.1
		c-2.9,1.5-6.1,3.2-9.7,4.9c-3.6,1.7-7.5,3.5-11.7,5.3c-4.2,1.8-8.6,3.6-13.3,5.3c-4.7,1.6-9.6,3.2-14.6,4.6c-5,1.5-10.1,3-15.1,4.6
		c-5,1.6-10.1,3.2-15.1,4.8c-5,1.6-9.9,3.1-14.6,4.6c-4.7,1.5-9.3,2.9-13.7,4.2c-4.4,1.3-8.5,2.6-12.3,3.8
		c-3.8,1.1-7.3,2.2-10.4,3.1c-3.1,0.9-5.8,1.7-8,2.4c-4.5,1.3-7,2.1-7,2.1L-13,339.4z"/>
</g>
<g id="XMLID_12_">
	<path id="XMLID_72_" class="st1" d="M-31,290.1c0,0,2.4-1.1,6.7-2.9c2.1-0.9,4.7-2,7.7-3.3c3-1.3,6.3-2.7,10-4.3
		c3.7-1.6,7.6-3.2,11.8-5c4.2-1.8,8.6-3.6,13.2-5.5c4.6-1.9,9.3-3.9,14.1-5.9c4.8-2,9.7-4,14.6-6c4.9-2,9.8-4.1,14.6-6.2
		c4.8-2.1,9.5-4.1,14.2-5.8c4.7-1.7,9.2-3.2,13.6-4.5c4.4-1.3,8.5-2.5,12.4-3.4c3.9-1,7.4-1.8,10.6-2.5c3.2-0.7,6-1.2,8.3-1.6
		c2.3-0.4,4.2-0.7,5.4-0.8c1.3-0.2,1.9-0.2,1.9-0.2l0.4,1.1c0,0-0.6,0.4-1.6,1.1c-1.1,0.7-2.6,1.7-4.7,2.9c-2,1.2-4.5,2.6-7.4,4.1
		c-2.9,1.5-6.1,3.2-9.7,4.9c-3.6,1.7-7.5,3.5-11.7,5.3c-4.2,1.8-8.6,3.6-13.3,5.3c-4.7,1.6-9.6,3.2-14.6,4.6c-5,1.5-10.1,3-15.1,4.6
		c-5,1.6-10.1,3.2-15.1,4.8c-5,1.6-9.9,3.1-14.6,4.6c-4.7,1.5-9.3,2.9-13.7,4.2c-4.4,1.3-8.5,2.6-12.3,3.8
		c-3.8,1.1-7.3,2.2-10.4,3.1c-3.1,0.9-5.8,1.7-8,2.4c-4.5,1.3-7,2.1-7,2.1L-31,290.1z"/>
</g>
<rect id="XMLID_466_" x="775.8" y="88.2" class="st6" width="123.9" height="125"/>
<rect id="XMLID_467_" x="796.6" y="109.6" class="st7" width="82.2" height="82.2"/>
<rect id="XMLID_469_" x="995.4" y="88.2" class="st6" width="123.9" height="125"/>
<rect id="XMLID_468_" x="1016.3" y="109.6" class="st7" width="82.2" height="82.2"/>
<rect id="XMLID_471_" x="775.8" y="312.8" class="st6" width="123.9" height="125"/>
<polygon id="XMLID_470_" class="st7" points="878.8,416.4 796.6,416.4 796.6,416.4 796.6,334.3 878.8,334.3 878.8,334.3 "/>
<rect id="XMLID_472_" x="986.8" y="342.3" class="st7" width="40.2" height="42.9"/>
<rect id="XMLID_473_" x="1022.6" y="323.5" class="st7" width="20.1" height="21.4"/>
<rect id="XMLID_474_" x="1022.6" y="385.1" class="st7" width="20.1" height="21.4"/>
<rect id="XMLID_475_" x="1047.3" y="385.1" class="st7" width="20.1" height="21.4"/>
<rect id="XMLID_476_" x="966.7" y="312.8" class="st7" width="20.1" height="21.4"/>
<rect id="XMLID_477_" x="946.5" y="289.1" class="st7" width="20.1" height="21.4"/>
<rect id="XMLID_478_" x="986.8" y="293.2" class="st7" width="20.1" height="21.4"/>
<rect id="XMLID_479_" x="1057.4" y="411" class="st7" width="20.1" height="21.4"/>
<rect id="XMLID_480_" x="985.4" y="412.7" class="st7" width="20.1" height="21.4"/>
<rect id="XMLID_481_" x="1006.8" y="411.8" class="st7" width="63.9" height="21.4"/>
<rect id="XMLID_482_" x="1067.4" y="339.1" class="st7" width="45.1" height="49.2"/>
<rect id="XMLID_483_" x="1047.3" y="312.8" class="st7" width="20.1" height="21.4"/>
<rect id="XMLID_484_" x="1071.5" y="289.1" class="st7" width="20.1" height="21.4"/>
<rect id="XMLID_485_" x="842.2" y="263.9" class="st7" width="114.8" height="21.4"/>
<rect id="XMLID_486_" x="818.9" y="268.6" class="st7" width="20.1" height="21.4"/>
<rect id="XMLID_487_" x="892.3" y="244" class="st7" width="20.1" height="21.4"/>
<rect id="XMLID_488_" x="835.9" y="244" class="st7" width="20.1" height="21.4"/>
<rect id="XMLID_489_" x="902.4" y="277.9" class="st7" width="20.1" height="21.4"/>
<rect id="XMLID_490_" x="956.6" y="239.7" class="st7" width="20.1" height="21.4"/>
<rect id="XMLID_491_" x="978.2" y="255.1" class="st7" width="89" height="20.7"/>
<rect id="XMLID_492_" x="1071.6" y="267.7" class="st7" width="20.1" height="21.4"/>
<rect id="XMLID_493_" x="936.5" y="222.6" class="st7" width="20.1" height="21.4"/>
<rect id="XMLID_494_" x="956.6" y="213.2" class="st7" width="20.1" height="21.4"/>
<rect id="XMLID_495_" x="930.7" y="158.3" class="st7" width="20.1" height="21.4"/>
<rect id="XMLID_496_" x="927.5" y="182.4" class="st7" width="39.7" height="21.4"/>
<rect id="XMLID_13_" x="927.5" y="308.7" class="st7" width="20.1" height="21.4"/>
<rect id="XMLID_14_" x="1004.1" y="278.4" class="st7" width="20.1" height="21.4"/>
<g id="XMLID_123_">
</g>
<g id="XMLID_124_">
</g>
<g id="XMLID_125_">
</g>
<g id="XMLID_126_">
</g>
<g id="XMLID_127_">
</g>
<g id="XMLID_128_">
</g>
<g id="XMLID_129_">
</g>
<g id="XMLID_131_">
</g>
<g id="XMLID_132_">
</g>
<g id="XMLID_133_">
</g>
<g id="XMLID_137_">
</g>
<g id="XMLID_138_">
</g>
<g id="XMLID_139_">
</g>
<g id="XMLID_140_">
</g>
<g id="XMLID_141_">
</g>
</svg>
