<?xml version="1.0" encoding="utf-8"?>
<!-- Generator: Adobe Illustrator 19.0.0, SVG Export Plug-In . SVG Version: 6.00 Build 0)  -->
<svg version="1.0" id="Calque_1" xmlns="http://www.w3.org/2000/svg" xmlns:xlink="http://www.w3.org/1999/xlink" x="0px" y="0px"
	 viewBox="0 0 500 500" style="enable-background:new 0 0 500 500;" xml:space="preserve">
<style type="text/css">
	.st0{fill:none;stroke:#587EB3;stroke-width:20;stroke-miterlimit:10;}
	.st1{fill:#587EB3;}
	.st2{fill:#587EB3;stroke:#CCCCCC;stroke-width:2;stroke-miterlimit:10;}
	.st3{clip-path:url(#XMLID_113_);fill:#587EB3;}
	.st4{fill:none;stroke:#FFFFFF;stroke-width:6;stroke-miterlimit:10;}
	.st5{fill:none;stroke:#FFFFFF;stroke-width:4;stroke-miterlimit:10;}
	.st6{fill:none;stroke:#FFFFFF;stroke-miterlimit:10;}
	.st7{fill:none;stroke:#587EB3;stroke-width:12;stroke-miterlimit:10;}
	.st8{fill:#CCCCCC;stroke:#587EB3;stroke-width:12;stroke-miterlimit:10;}
</style>
<ellipse id="XMLID_2_" class="st0" cx="189.2" cy="193.1" rx="135.9" ry="131.9"/>
<g id="XMLID_1_">
	<g id="XMLID_56_">
		<path id="XMLID_61_" class="st1" d="M267.9,311.8c33.7,34.3,67.3,68.6,101,102.9c4.7,4.8,9.4,9.6,14.1,14.4
			c5.7,5.8,15.5,5.7,21.2,0c5.8-5.8,5.7-15.4,0-21.2c-33.7-34.3-67.3-68.6-101-102.9c-4.7-4.8-9.4-9.6-14.1-14.4
			c-5.7-5.8-15.5-5.7-21.2,0C262.1,296.4,262.2,306,267.9,311.8L267.9,311.8z"/>
	</g>
</g>
<ellipse id="XMLID_16_" class="st2" cx="918" cy="203.2" rx="102.4" ry="103.6"/>
<g id="XMLID_19_">
	<defs>
		<rect id="XMLID_18_" x="679.7" y="15" width="476.5" height="403"/>
	</defs>
	<clipPath id="XMLID_113_">
		<use xlink:href="#XMLID_18_"  style="overflow:visible;"/>
	</clipPath>
	<ellipse id="XMLID_17_" class="st3" cx="922.1" cy="412.8" rx="189.2" ry="119.8"/>
</g>
<path id="XMLID_59_" class="st1" d="M1880.3,254.1L1608.5,353c-6.2,2.3-13.1-1-15.4-7.2l-61.5-169c-2.3-6.2,1-13.1,7.2-15.4
	l271.8-98.9c6.2-2.3,13.1,1,15.4,7.2l61.5,169C1889.8,244.9,1886.5,251.9,1880.3,254.1z"/>
<line id="XMLID_3_" class="st4" x1="1728.3" y1="151.6" x2="1805.2" y2="123.6"/>
<line id="XMLID_5_" class="st4" x1="1737.8" y1="177.9" x2="1814.7" y2="149.9"/>
<line id="XMLID_6_" class="st4" x1="1747.4" y1="204.1" x2="1824.3" y2="176.1"/>
<line id="XMLID_7_" class="st4" x1="1756.3" y1="228.5" x2="1833.1" y2="200.5"/>
<rect id="XMLID_4_" x="1601.6" y="180.9" transform="matrix(0.9397 -0.342 0.342 0.9397 25.9664 571.6138)" class="st5" width="64.5" height="62.6"/>
<line id="XMLID_8_" class="st4" x1="1617" y1="283.4" x2="1692" y2="256.1"/>
<line id="XMLID_9_" class="st6" x1="1677.9" y1="121.1" x2="1742.7" y2="299.2"/>
<g id="XMLID_10_">
	<path id="XMLID_76_" class="st1" d="M1393.7,377.8c0,0,2.4-1.1,6.7-2.9c2.1-0.9,4.7-2,7.7-3.3c3-1.3,6.3-2.7,10-4.3
		c3.7-1.6,7.6-3.2,11.8-5c4.2-1.8,8.6-3.6,13.2-5.5c4.6-1.9,9.3-3.9,14.1-5.9c4.8-2,9.7-4,14.6-6c4.9-2,9.8-4.1,14.6-6.2
		c4.8-2.1,9.5-4.1,14.2-5.8c4.7-1.7,9.2-3.2,13.6-4.5c4.4-1.3,8.5-2.5,12.4-3.4c3.9-1,7.4-1.8,10.6-2.5c3.2-0.7,6-1.2,8.3-1.6
		c2.3-0.4,4.2-0.7,5.4-0.8c1.3-0.2,1.9-0.2,1.9-0.2l0.4,1.1c0,0-0.6,0.4-1.6,1.1c-1.1,0.7-2.6,1.7-4.7,2.9c-2,1.2-4.5,2.6-7.4,4.1
		c-2.9,1.5-6.1,3.2-9.7,4.9c-3.6,1.7-7.5,3.5-11.7,5.3c-4.2,1.8-8.6,3.6-13.3,5.3c-4.7,1.6-9.6,3.2-14.6,4.6c-5,1.5-10.1,3-15.1,4.6
		c-5,1.6-10.1,3.2-15.1,4.8c-5,1.6-9.9,3.1-14.6,4.6c-4.7,1.5-9.3,2.9-13.7,4.2c-4.4,1.3-8.5,2.6-12.3,3.8
		c-3.8,1.1-7.3,2.2-10.4,3.1c-3.1,0.9-5.8,1.7-8,2.4c-4.5,1.3-7,2.1-7,2.1L1393.7,377.8z"/>
</g>
<g id="XMLID_11_">
	<path id="XMLID_74_" class="st1" d="M1375,326.4c0,0,2.4-1.1,6.7-2.9c2.1-0.9,4.7-2,7.7-3.3c3-1.3,6.3-2.7,10-4.3
		c3.7-1.6,7.6-3.2,11.8-5c4.2-1.8,8.6-3.6,13.2-5.5c4.6-1.9,9.3-3.9,14.1-5.9c4.8-2,9.7-4,14.6-6c4.9-2,9.8-4.1,14.6-6.2
		c4.8-2.1,9.5-4.1,14.2-5.8c4.7-1.7,9.2-3.2,13.6-4.5c4.4-1.3,8.5-2.5,12.4-3.4c3.9-1,7.4-1.8,10.6-2.5c3.2-0.7,6-1.2,8.3-1.6
		c2.3-0.4,4.2-0.7,5.4-0.8c1.3-0.2,1.9-0.2,1.9-0.2l0.4,1.1c0,0-0.6,0.4-1.6,1.1c-1.1,0.7-2.6,1.7-4.7,2.9c-2,1.2-4.5,2.6-7.4,4.1
		c-2.9,1.5-6.1,3.2-9.7,4.9c-3.6,1.7-7.5,3.5-11.7,5.3c-4.2,1.8-8.6,3.6-13.3,5.3c-4.7,1.6-9.6,3.2-14.6,4.6c-5,1.5-10.1,3-15.1,4.6
		c-5,1.6-10.1,3.2-15.1,4.8c-5,1.6-9.9,3.1-14.6,4.6c-4.7,1.5-9.3,2.9-13.7,4.2c-4.4,1.3-8.5,2.6-12.3,3.8
		c-3.8,1.1-7.3,2.2-10.4,3.1c-3.1,0.9-5.8,1.7-8,2.4c-4.5,1.3-7,2.1-7,2.1L1375,326.4z"/>
</g>
<g id="XMLID_12_">
	<path id="XMLID_72_" class="st1" d="M1357,277.1c0,0,2.4-1.1,6.7-2.9c2.1-0.9,4.7-2,7.7-3.3c3-1.3,6.3-2.7,10-4.3
		c3.7-1.6,7.6-3.2,11.8-5c4.2-1.8,8.6-3.6,13.2-5.5c4.6-1.9,9.3-3.9,14.1-5.9c4.8-2,9.7-4,14.6-6c4.9-2,9.8-4.1,14.6-6.2
		c4.8-2.1,9.5-4.1,14.2-5.8c4.7-1.7,9.2-3.2,13.6-4.5c4.4-1.3,8.5-2.5,12.4-3.4c3.9-1,7.4-1.8,10.6-2.5c3.2-0.7,6-1.2,8.3-1.6
		c2.3-0.4,4.2-0.7,5.4-0.8c1.3-0.2,1.9-0.2,1.9-0.2l0.4,1.1c0,0-0.6,0.4-1.6,1.1c-1.1,0.7-2.6,1.7-4.7,2.9c-2,1.2-4.5,2.6-7.4,4.1
		c-2.9,1.5-6.1,3.2-9.7,4.9c-3.6,1.7-7.5,3.5-11.7,5.3c-4.2,1.8-8.6,3.6-13.3,5.3c-4.7,1.6-9.6,3.2-14.6,4.6c-5,1.5-10.1,3-15.1,4.6
		c-5,1.6-10.1,3.2-15.1,4.8c-5,1.6-9.9,3.1-14.6,4.6c-4.7,1.5-9.3,2.9-13.7,4.2c-4.4,1.3-8.5,2.6-12.3,3.8
		c-3.8,1.1-7.3,2.2-10.4,3.1c-3.1,0.9-5.8,1.7-8,2.4c-4.5,1.3-7,2.1-7,2.1L1357,277.1z"/>
</g>
<rect id="XMLID_466_" x="2163.8" y="75.2" class="st7" width="123.9" height="125"/>
<rect id="XMLID_467_" x="2184.6" y="96.6" class="st8" width="82.2" height="82.2"/>
<rect id="XMLID_469_" x="2383.4" y="75.2" class="st7" width="123.9" height="125"/>
<rect id="XMLID_468_" x="2404.3" y="96.6" class="st8" width="82.2" height="82.2"/>
<rect id="XMLID_471_" x="2163.8" y="299.8" class="st7" width="123.9" height="125"/>
<polygon id="XMLID_470_" class="st8" points="2266.8,403.4 2184.6,403.4 2184.6,403.4 2184.6,321.3 2266.8,321.3 2266.8,321.3 "/>
<rect id="XMLID_472_" x="2374.8" y="329.3" class="st8" width="40.2" height="42.9"/>
<rect id="XMLID_473_" x="2410.6" y="310.5" class="st8" width="20.1" height="21.4"/>
<rect id="XMLID_474_" x="2410.6" y="372.1" class="st8" width="20.1" height="21.4"/>
<rect id="XMLID_475_" x="2435.3" y="372.1" class="st8" width="20.1" height="21.4"/>
<rect id="XMLID_476_" x="2354.7" y="299.8" class="st8" width="20.1" height="21.4"/>
<rect id="XMLID_477_" x="2334.5" y="276.1" class="st8" width="20.1" height="21.4"/>
<rect id="XMLID_478_" x="2374.8" y="280.2" class="st8" width="20.1" height="21.4"/>
<rect id="XMLID_479_" x="2445.4" y="398" class="st8" width="20.1" height="21.4"/>
<rect id="XMLID_480_" x="2373.4" y="399.7" class="st8" width="20.1" height="21.4"/>
<rect id="XMLID_481_" x="2394.8" y="398.8" class="st8" width="63.9" height="21.4"/>
<rect id="XMLID_482_" x="2455.4" y="326.1" class="st8" width="45.1" height="49.2"/>
<rect id="XMLID_483_" x="2435.3" y="299.8" class="st8" width="20.1" height="21.4"/>
<rect id="XMLID_484_" x="2459.5" y="276.1" class="st8" width="20.1" height="21.4"/>
<rect id="XMLID_485_" x="2230.2" y="250.9" class="st8" width="114.8" height="21.4"/>
<rect id="XMLID_486_" x="2206.9" y="255.6" class="st8" width="20.1" height="21.4"/>
<rect id="XMLID_487_" x="2280.3" y="231" class="st8" width="20.1" height="21.4"/>
<rect id="XMLID_488_" x="2223.9" y="231" class="st8" width="20.1" height="21.4"/>
<rect id="XMLID_489_" x="2290.4" y="264.9" class="st8" width="20.1" height="21.4"/>
<rect id="XMLID_490_" x="2344.6" y="226.7" class="st8" width="20.1" height="21.4"/>
<rect id="XMLID_491_" x="2366.2" y="242.1" class="st8" width="89" height="20.7"/>
<rect id="XMLID_492_" x="2459.6" y="254.7" class="st8" width="20.1" height="21.4"/>
<rect id="XMLID_493_" x="2324.5" y="209.6" class="st8" width="20.1" height="21.4"/>
<rect id="XMLID_494_" x="2344.6" y="200.2" class="st8" width="20.1" height="21.4"/>
<rect id="XMLID_495_" x="2318.7" y="145.3" class="st8" width="20.1" height="21.4"/>
<rect id="XMLID_496_" x="2315.5" y="169.4" class="st8" width="39.7" height="21.4"/>
<rect id="XMLID_13_" x="2315.5" y="295.7" class="st8" width="20.1" height="21.4"/>
<rect id="XMLID_14_" x="2392.1" y="265.4" class="st8" width="20.1" height="21.4"/>
<g id="XMLID_97_">
</g>
<g id="XMLID_98_">
</g>
<g id="XMLID_99_">
</g>
<g id="XMLID_100_">
</g>
<g id="XMLID_101_">
</g>
<g id="XMLID_102_">
</g>
<g id="XMLID_103_">
</g>
<g id="XMLID_104_">
</g>
<g id="XMLID_105_">
</g>
<g id="XMLID_106_">
</g>
<g id="XMLID_107_">
</g>
<g id="XMLID_108_">
</g>
<g id="XMLID_109_">
</g>
<g id="XMLID_110_">
</g>
<g id="XMLID_111_">
</g>
</svg>
